<svg width="116" height="37" viewBox="0 0 116 37" fill="none" xmlns="http://www.w3.org/2000/svg">
<path d="M18.5205 0.5C17.1169 0.5 15.7508 0.660642 14.4402 0.965194C7.77553 2.50937 2.52988 7.75502 0.985702 14.419C0.68115 15.7303 0.520508 17.0964 0.520508 18.5C0.520508 28.4411 8.57941 36.5 18.5205 36.5C19.9241 36.5 21.2903 36.3394 22.6015 36.0348C29.2655 34.4906 34.5111 29.2456 36.056 22.5823C36.3605 21.2711 36.5212 19.9043 36.5212 18.5C36.5212 8.5589 28.4616 0.5 18.5205 0.5ZM18.5205 29.7724C17.1919 29.7724 15.9174 29.5428 14.734 29.1205C11.5546 27.9866 9.03456 25.4665 7.9007 22.2871C7.47834 21.1037 7.24876 19.8286 7.24876 18.5C7.24876 12.2744 12.2949 7.22758 18.5205 7.22758C19.8492 7.22758 21.1236 7.45716 22.307 7.87952C25.4864 9.01339 28.0071 11.5335 29.141 14.7129C29.5633 15.8963 29.7929 17.1714 29.7929 18.5C29.7929 24.7256 24.7461 29.7724 18.5205 29.7724Z" fill="url(#paint0_linear_84_244)"/>
<path d="M18.5206 11.2349C14.5085 11.2349 11.2555 14.4879 11.2555 18.4999C11.2555 22.512 14.5085 25.765 18.5206 25.765C22.5326 25.765 25.7856 22.512 25.7856 18.4999C25.7856 14.4879 22.5333 11.2349 18.5206 11.2349ZM18.5206 22.8928C16.0949 22.8928 14.1276 20.9263 14.1276 18.4999C14.1276 16.0736 16.0949 14.107 18.5206 14.107C20.9463 14.107 22.9135 16.0736 22.9135 18.4999C22.9135 20.9263 20.9469 22.8928 18.5206 22.8928Z" fill="#FEFCFE"/>
<path d="M22.307 7.87966C21.1236 7.4573 19.8492 7.22772 18.5205 7.22772C12.295 7.22772 7.24877 12.2746 7.24877 18.5001C7.24877 19.8288 7.47835 21.1039 7.90071 22.2873C6.46229 21.7438 5.11356 20.893 3.9556 19.7351C2.43619 18.2157 1.44623 16.3676 0.985718 14.4191C2.52989 7.75516 7.77554 2.50951 14.4402 0.965332C16.388 1.42584 18.2361 2.4158 19.7555 3.93521C20.9128 5.09251 21.7635 6.44124 22.307 7.87966Z" fill="url(#paint1_linear_84_244)"/>
<path d="M36.056 22.5824C34.5111 29.2457 29.2655 34.4907 22.6015 36.0348C20.6537 35.5743 18.8056 34.5844 17.2862 33.065C16.1283 31.907 15.2775 30.5583 14.734 29.1205C15.9174 29.5429 17.1918 29.7725 18.5205 29.7725C24.7461 29.7725 29.7929 24.7256 29.7929 18.5C29.7929 17.1714 29.5633 15.8963 29.141 14.7129C30.5787 15.2564 31.9274 16.1071 33.0854 17.2651C34.6048 18.7845 35.5955 20.6339 36.056 22.5824Z" fill="url(#paint2_linear_84_244)"/>
<path d="M9.61692 31.1713C11.6974 31.1713 13.384 29.4848 13.384 27.4043C13.384 25.3238 11.6974 23.6372 9.61692 23.6372C7.53643 23.6372 5.84985 25.3238 5.84985 27.4043C5.84985 29.4848 7.53643 31.1713 9.61692 31.1713Z" fill="url(#paint3_linear_84_244)"/>
<path d="M27.4576 13.3305C29.5381 13.3305 31.2247 11.6439 31.2247 9.56346C31.2247 7.48296 29.5381 5.79639 27.4576 5.79639C25.3771 5.79639 23.6906 7.48296 23.6906 9.56346C23.6906 11.6439 25.3771 13.3305 27.4576 13.3305Z" fill="url(#paint4_linear_84_244)"/>
<path d="M115.281 15.1088V17.0974H109.01V15.1088H115.281ZM110.558 12.4951H113.129V22.7366C113.129 23.0822 113.181 23.3474 113.285 23.532C113.394 23.712 113.536 23.8351 113.711 23.9014C113.886 23.9677 114.081 24.0008 114.294 24.0008C114.455 24.0008 114.601 23.989 114.734 23.9653C114.871 23.9416 114.975 23.9203 115.046 23.9014L115.48 25.9113C115.342 25.9587 115.146 26.0107 114.89 26.0676C114.639 26.1244 114.331 26.1575 113.967 26.167C113.323 26.1859 112.743 26.0889 112.227 25.8758C111.711 25.658 111.301 25.3218 110.998 24.8673C110.7 24.4127 110.553 23.8445 110.558 23.1627V12.4951Z" fill="#D4D4D8"/>
<path d="M104.619 26.0176V15.1085H107.19V26.0176H104.619ZM105.911 13.5602C105.504 13.5602 105.154 13.4253 104.86 13.1554C104.566 12.8808 104.42 12.5517 104.42 12.1682C104.42 11.7799 104.566 11.4509 104.86 11.181C105.154 10.9064 105.504 10.769 105.911 10.769C106.323 10.769 106.673 10.9064 106.962 11.181C107.256 11.4509 107.403 11.7799 107.403 12.1682C107.403 12.5517 107.256 12.8808 106.962 13.1554C106.673 13.4253 106.323 13.5602 105.911 13.5602Z" fill="#D4D4D8"/>
<path d="M92.1345 26.0176V11.4722H94.7055V16.9125H94.8121C94.9447 16.6474 95.1317 16.3656 95.3732 16.0673C95.6146 15.7643 95.9413 15.5063 96.3533 15.2932C96.7652 15.0754 97.2908 14.9665 97.93 14.9665C98.7728 14.9665 99.5327 15.1819 100.21 15.6128C100.892 16.0389 101.431 16.671 101.829 17.5091C102.232 18.3424 102.433 19.3652 102.433 20.5773C102.433 21.7752 102.236 22.7932 101.843 23.6313C101.45 24.4693 100.915 25.1085 100.238 25.5489C99.5611 25.9892 98.7941 26.2094 97.9371 26.2094C97.3121 26.2094 96.7936 26.1052 96.3817 25.8969C95.9698 25.6886 95.6383 25.4376 95.3874 25.144C95.1412 24.8457 94.9494 24.564 94.8121 24.2989H94.6629V26.0176H92.1345ZM94.6558 20.5631C94.6558 21.2686 94.7553 21.8865 94.9541 22.4168C95.1577 22.9471 95.4489 23.3614 95.8277 23.6597C96.2112 23.9532 96.6752 24.1 97.2197 24.1C97.7879 24.1 98.2638 23.9485 98.6473 23.6455C99.0308 23.3377 99.3197 22.9187 99.5138 22.3884C99.7126 21.8533 99.8121 21.2449 99.8121 20.5631C99.8121 19.886 99.715 19.2847 99.5209 18.7591C99.3268 18.2335 99.0379 17.8216 98.6544 17.5233C98.2709 17.225 97.7927 17.0759 97.2197 17.0759C96.6705 17.0759 96.2041 17.2203 95.8206 17.5091C95.4371 17.7979 95.1459 18.2028 94.947 18.7236C94.7529 19.2444 94.6558 19.8576 94.6558 20.5631Z" fill="#D4D4D8"/>
<path d="M84.0912 26.0175V15.1084H86.5841V16.9266H86.6977C86.8966 16.2968 87.2375 15.8115 87.7204 15.4706C88.2081 15.125 88.7645 14.9521 89.3895 14.9521C89.5315 14.9521 89.6901 14.9593 89.8653 14.9735C90.0453 14.9829 90.1944 14.9995 90.3128 15.0232V17.3882C90.2039 17.3503 90.0311 17.3172 89.7943 17.2888C89.5623 17.2557 89.3374 17.2391 89.1196 17.2391C88.6508 17.2391 88.2294 17.3409 87.8554 17.5445C87.4861 17.7433 87.1949 18.0203 86.9818 18.3754C86.7687 18.7306 86.6622 19.1401 86.6622 19.6041V26.0175H84.0912Z" fill="#D4D4D8"/>
<path d="M76.6817 26.2305C75.6164 26.2305 74.6931 25.9961 73.9119 25.5274C73.1306 25.0586 72.5245 24.4029 72.0937 23.5601C71.6675 22.7173 71.4545 21.7324 71.4545 20.6055C71.4545 19.4786 71.6675 18.4914 72.0937 17.6439C72.5245 16.7963 73.1306 16.1382 73.9119 15.6694C74.6931 15.2007 75.6164 14.9663 76.6817 14.9663C77.7471 14.9663 78.6704 15.2007 79.4516 15.6694C80.2329 16.1382 80.8366 16.7963 81.2627 17.6439C81.6936 18.4914 81.909 19.4786 81.909 20.6055C81.909 21.7324 81.6936 22.7173 81.2627 23.5601C80.8366 24.4029 80.2329 25.0586 79.4516 25.5274C78.6704 25.9961 77.7471 26.2305 76.6817 26.2305ZM76.6959 24.1709C77.2736 24.1709 77.7566 24.0122 78.1448 23.695C78.5331 23.373 78.8219 22.9422 79.0113 22.4024C79.2054 21.8626 79.3025 21.2613 79.3025 20.5984C79.3025 19.9308 79.2054 19.3271 79.0113 18.7873C78.8219 18.2428 78.5331 17.8096 78.1448 17.4876C77.7566 17.1656 77.2736 17.0047 76.6959 17.0047C76.1041 17.0047 75.6117 17.1656 75.2187 17.4876C74.8304 17.8096 74.5392 18.2428 74.3451 18.7873C74.1557 19.3271 74.061 19.9308 74.061 20.5984C74.061 21.2613 74.1557 21.8626 74.3451 22.4024C74.5392 22.9422 74.8304 23.373 75.2187 23.695C75.6117 24.0122 76.1041 24.1709 76.6959 24.1709Z" fill="#D4D4D8"/>
<path d="M67.7063 26.1738C67.2754 26.1738 66.9061 26.0223 66.5983 25.7192C66.2906 25.4162 66.139 25.0469 66.1438 24.6113C66.139 24.1851 66.2906 23.8206 66.5983 23.5175C66.9061 23.2145 67.2754 23.063 67.7063 23.063C68.123 23.063 68.4852 23.2145 68.7929 23.5175C69.1054 23.8206 69.264 24.1851 69.2688 24.6113C69.264 24.9001 69.1883 25.1629 69.0415 25.3996C68.8995 25.6364 68.7101 25.8258 68.4733 25.9678C68.2413 26.1051 67.9856 26.1738 67.7063 26.1738Z" fill="#D4D4D8"/>
<path d="M56.506 19.6254V26.0174H53.9349V15.1084H56.3923V16.962H56.5202C56.7711 16.3513 57.1712 15.8659 57.7204 15.5061C58.2744 15.1462 58.9586 14.9663 59.773 14.9663C60.5258 14.9663 61.1816 15.1273 61.7403 15.4493C62.3038 15.7712 62.7394 16.2376 63.0472 16.8484C63.3597 17.4592 63.5135 18.2002 63.5088 19.0714V26.0174H60.9378V19.4691C60.9378 18.74 60.7484 18.1694 60.3696 17.7575C59.9955 17.3456 59.4771 17.1396 58.8142 17.1396C58.3644 17.1396 57.9643 17.239 57.6139 17.4379C57.2683 17.632 56.996 17.9138 56.7972 18.2831C56.603 18.6524 56.506 19.0998 56.506 19.6254Z" fill="#D4D4D8"/>
<path d="M48.7201 26.0176V15.1085H51.2911V26.0176H48.7201ZM50.0127 13.5602C49.6055 13.5602 49.2551 13.4253 48.9616 13.1554C48.668 12.8808 48.5212 12.5517 48.5212 12.1682C48.5212 11.7799 48.668 11.4509 48.9616 11.181C49.2551 10.9064 49.6055 10.769 50.0127 10.769C50.4246 10.769 50.775 10.9064 51.0639 11.181C51.3574 11.4509 51.5042 11.7799 51.5042 12.1682C51.5042 12.5517 51.3574 12.8808 51.0639 13.1554C50.775 13.4253 50.4246 13.5602 50.0127 13.5602Z" fill="#D4D4D8"/>
<defs>
<linearGradient id="paint0_linear_84_244" x1="31.0761" y1="6.63588" x2="6.35585" y2="29.9953" gradientUnits="userSpaceOnUse">
<stop stop-color="#F38856"/>
<stop offset="0.23" stop-color="#F0625C"/>
<stop offset="1" stop-color="#5C3DAB"/>
</linearGradient>
<linearGradient id="paint1_linear_84_244" x1="17.3813" y1="3.55168" x2="3.32039" y2="17.537" gradientUnits="userSpaceOnUse">
<stop stop-color="#F67986"/>
<stop offset="1" stop-color="#8951BA"/>
</linearGradient>
<linearGradient id="paint2_linear_84_244" x1="33.4629" y1="19.7196" x2="19.402" y2="33.7055" gradientUnits="userSpaceOnUse">
<stop stop-color="#F67986"/>
<stop offset="1" stop-color="#8951BA"/>
</linearGradient>
<linearGradient id="paint3_linear_84_244" x1="12.3673" y1="24.8306" x2="6.86592" y2="29.9779" gradientUnits="userSpaceOnUse">
<stop stop-color="#A267B9"/>
<stop offset="1" stop-color="#704BB4"/>
</linearGradient>
<linearGradient id="paint4_linear_84_244" x1="29.7474" y1="7.42022" x2="25.9918" y2="10.9349" gradientUnits="userSpaceOnUse">
<stop stop-color="#F7A8A5"/>
<stop offset="0.97" stop-color="#D074C4"/>
<stop offset="1" stop-color="#CF76A9"/>
</linearGradient>
</defs>
</svg>
